<?xml version="1.0" standalone="no"?><!DOCTYPE svg PUBLIC "-//W3C//DTD SVG 1.1//EN" "http://www.w3.org/Graphics/SVG/1.1/DTD/svg11.dtd"><svg t="1649859583202" class="icon" viewBox="0 0 1024 1024" version="1.1" xmlns="http://www.w3.org/2000/svg" p-id="3207" xmlns:xlink="http://www.w3.org/1999/xlink" width="200" height="200"><defs><style type="text/css"></style></defs><path d="M750.78 335.7C729.73 185.14 593.3 71.46 433.67 86.69 284.91 100.88 169.56 229.85 170.8 379.28c0.18 22.17 2.87 43.68 7.81 64.39-56.38 51.19-92.15 124.93-93.12 207.02C83.61 809 218.47 938.53 376.79 938.53h248.59c166.83 0 308.65-130.47 313.17-297.24 3.37-124.4-67.64-232.59-171.68-283.36-8.78-4.29-14.74-12.54-16.09-22.23zM626.96 853.21H402.35c-133.33 0-224.48-80.6-231.15-186.27-3.27-51.88 13.49-99.74 43.11-136.96 18.06-22.61 40.95-41.24 67.12-54.18 26.73-13.37 56.74-20.76 88.45-20.76 71.1 0 71.1-85.32 0-85.32-40.24 0-78.5 8.39-113.05 23.46-0.43-5.4-0.71-10.81-0.71-16.35 0-113.76 92.43-206.19 206.19-206.19 97.12 0 178.61 67.4 200.36 157.84 3.84 15.5 5.83 31.71 5.83 48.35 0 4.47-0.14 8.9-0.41 13.3-0.87 13.75 7.74 26.04 21.07 29.52 20.25 5.3 39.36 13.48 56.85 24.01 68.28 40.94 112.65 117.82 106.85 204.23-7.84 116.72-108.94 205.32-225.9 205.32z" fill="#1A1A1A" p-id="3208"></path></svg>